<?xml version="1.0" encoding="UTF-8" standalone="no"?> <!-- Created with Vectornator for iOS (http://vectornator.io/) --><!DOCTYPE svg PUBLIC "-//W3C//DTD SVG 1.1//EN" "http://www.w3.org/Graphics/SVG/1.1/DTD/svg11.dtd">
<svg style="fill-rule:evenodd;clip-rule:evenodd;stroke-linecap:round;stroke-linejoin:round;" xmlns:vectornator="http://vectornator.io" xmlns:xlink="http://www.w3.org/1999/xlink" xmlns="http://www.w3.org/2000/svg" xml:space="preserve" version="1.1" viewBox="0 0 3000 2000">
<metadata>
<vectornator:setting key="DimensionsVisible" value="1"/>
<vectornator:setting key="New" value="1"/>
<vectornator:setting key="SnapToPoints" value="0"/>
<vectornator:setting key="GuidesVisible" value="1"/>
<vectornator:setting key="RulersVisible" value="1"/>
<vectornator:setting key="CMYKEnabledKey" value="0"/>
<vectornator:setting key="SnapToEdges" value="0"/>
<vectornator:setting key="DisplayWhiteBackground" value="0"/>
<vectornator:setting key="SnapToGuides" value="1"/>
<vectornator:setting key="GridSpacing" value="36"/>
<vectornator:setting key="Units" value="Pixels"/>
<vectornator:setting key="DynamicGuides" value="0"/>
<vectornator:setting key="SnapToGrid" value="0"/>
</metadata>
<defs>
<linearGradient y1="1033.85" id="LinearGradient" x1="-58.0047" y2="1025.95" x2="2149.02" gradientUnits="userSpaceOnUse" gradientTransform="matrix(1.39891 0 0 0.930426 34.9089 -8.20346)">
<stop stop-color="#1a1a1a" offset="0"/>
<stop stop-color="#2a2a2a" offset="1"/>
</linearGradient>
<linearGradient y1="690.823" id="LinearGradient_2" x1="650" y2="690.823" x2="1450" gradientUnits="userSpaceOnUse" gradientTransform="matrix(0.499282 0.290906 -0.290906 0.499282 323.603 139.184)">
<stop stop-color="#ff6729" offset="0"/>
<stop stop-color="#c8440c" offset="0.998541"/>
</linearGradient>
<linearGradient y1="1494.21" id="LinearGradient_3" x1="650" y2="1494.21" x2="1450" gradientUnits="userSpaceOnUse" gradientTransform="matrix(0.499282 0.290906 -0.290906 0.499282 323.603 139.184)">
<stop stop-color="#ff6729" offset="0"/>
<stop stop-color="#c8440c" offset="0.998541"/>
</linearGradient>
</defs>
<g id="Layer 1" vectornator:layerName="Layer 1">
<path d="M-46.2345-146.28L3043.6-146.28L3043.6+2053.72L-46.2345+2053.72L-46.2345-146.28Z" opacity="1" fill="url(#LinearGradient)"/>
<g opacity="1">
<path d="M328.059+877.62C367.34+914.158+411.917+947.46+461.23+976.193C555.012+1030.83+654.185+1062.48+749.659+1072.28L858.472+885.531C922.942+774.88+885.772+633.926+775.122+569.455C665.145+505.378+523.517+542.155+459.047+652.806L328.059+877.62Z" opacity="1" fill="url(#LinearGradient_2)"/>
<path d="M317.504+895.735L221.739+1060.1C157.269+1170.75+194.437+1311.7+305.089+1376.17C415.739+1440.64+556.694+1403.47+621.164+1292.82L720.968+1121.53C643.512+1104.74+565.402+1074.86+490.789+1031.38C424.777+992.922+366.573+946.809+317.504+895.735Z" opacity="1" fill="url(#LinearGradient_3)"/>
</g>
</g>
<g id="Layer 2" vectornator:layerName="Layer 2">
<path d="M1075.93+961.893C1067.45+961.893+1061.31+966.135+1057.51+974.617L990.211+1147.39L1001.93+1147.06L928.599+974.617C924.801+965.911+918.665+961.558+910.181+961.558C905.943+961.558+901.477+963.289+896.791+966.748C892.105+970.209+889.757+975.175+889.757+981.648C889.757+982.988+889.872+984.383+890.092+985.834C890.32+987.285+890.76+988.68+891.436+990.02L974.14+1184.23C975.925+1188.24+978.492+1191.31+981.842+1193.43C985.191+1195.56+988.647+1196.73+992.216+1196.95C996.014+1196.95+999.755+1195.89+1003.44+1193.77C1007.12+1191.65+1009.97+1188.36+1011.97+1183.89L1094.68+990.355C1096.02+987.229+1096.69+984.216+1096.69+981.313C1096.69+975.733+1094.62+971.101+1090.49+967.418C1086.37+963.734+1081.51+961.893+1075.93+961.893ZM1166.34+1038.24C1166.34+1032.43+1164.44+1027.58+1160.64+1023.67C1156.85+1019.76+1152.05+1017.81+1146.25+1017.81C1140.44+1017.81+1135.64+1019.76+1131.85+1023.67C1128.05+1027.58+1126.16+1032.43+1126.16+1038.24L1126.16+1176.53C1126.16+1182.33+1128.05+1187.18+1131.85+1191.09C1135.64+1195+1140.44+1196.95+1146.25+1196.95C1152.05+1196.95+1156.85+1195+1160.64+1191.09C1164.44+1187.18+1166.34+1182.33+1166.34+1176.53L1166.34+1038.24ZM1145.91+996.047C1153.5+996.047+1158.97+994.875+1162.32+992.531C1165.67+990.187+1167.34+985.779+1167.34+979.305L1167.34+972.943C1167.34+966.693+1165.78+962.339+1162.65+959.884C1159.53+957.429+1154.06+956.201+1146.25+956.201C1139.1+956.201+1133.8+957.373+1130.34+959.717C1126.88+962.06+1125.15+966.469+1125.15+972.943L1125.15+979.305C1125.15+985.555+1126.71+989.908+1129.84+992.364C1132.96+994.819+1138.32+996.047+1145.91+996.047ZM1209.53+1021.16C1204.17+1021.16+1199.71+1022.89+1196.14+1026.35C1192.57+1029.81+1190.78+1034.11+1190.78+1039.24C1190.78+1044.6+1192.57+1049.06+1196.14+1052.63C1199.71+1056.21+1204.17+1057.99+1209.53+1057.99L1288.89+1057.99C1294.24+1057.99+1298.71+1056.26+1302.28+1052.8C1305.85+1049.34+1307.64+1045.05+1307.64+1039.91C1307.64+1034.55+1305.85+1030.09+1302.28+1026.52C1298.71+1022.95+1294.24+1021.16+1288.89+1021.16L1209.53+1021.16ZM1245.36+979.305C1239.55+979.305+1234.7+981.258+1230.79+985.164C1226.89+989.071+1224.93+993.926+1224.93+999.73L1224.93+1150.41C1224.93+1161.35+1226.61+1169.94+1229.96+1176.19C1233.3+1182.44+1237.49+1187.07+1242.51+1190.09C1247.53+1193.1+1252.89+1195+1258.58+1195.78C1264.28+1196.56+1269.47+1196.95+1274.15+1196.95C1281.97+1196.95+1289.28+1194.94+1296.09+1190.92C1302.89+1186.91+1306.3+1181.77+1306.3+1175.52C1306.3+1170.39+1305.02+1166.37+1302.45+1163.47C1299.88+1160.56+1297.04+1159.11+1293.91+1159.11C1291.01+1159.11+1288.44+1159.62+1286.21+1160.62C1283.98+1161.63+1281.52+1162.13+1278.84+1162.13C1276.39+1162.13+1274.1+1161.68+1271.98+1160.79C1269.86+1159.9+1268.18+1158.44+1266.96+1156.43C1265.73+1154.43+1265.11+1151.86+1265.11+1148.73L1265.11+999.73C1265.11+993.926+1263.27+989.071+1259.59+985.164C1255.91+981.258+1251.16+979.305+1245.36+979.305ZM1491.13+1014.46C1485.33+1014.46+1480.53+1016.42+1476.73+1020.32C1472.94+1024.23+1471.04+1029.08+1471.04+1034.89L1471.04+1059.33L1483.09+1054.98C1483.09+1051.85+1481.48+1048+1478.24+1043.43C1475+1038.85+1470.43+1034.33+1464.51+1029.87C1458.6+1025.4+1451.62+1021.72+1443.58+1018.82C1435.55+1015.91+1426.73+1014.46+1417.13+1014.46C1402.18+1014.46+1388.56+1018.43+1376.28+1026.35C1364+1034.27+1354.24+1045.21+1346.98+1059.16C1339.73+1073.12+1336.1+1089.24+1336.1+1107.55C1336.1+1125.63+1339.73+1141.65+1346.98+1155.6C1354.24+1169.55+1364.11+1180.49+1376.62+1188.41C1389.12+1196.34+1403.07+1200.3+1418.47+1200.3C1426.95+1200.3+1434.82+1198.9+1442.08+1196.11C1449.33+1193.32+1455.64+1189.92+1461+1185.9C1466.35+1181.88+1470.59+1177.81+1473.72+1173.68C1476.84+1169.55+1478.41+1166.03+1478.41+1163.13L1471.04+1160.12L1471.04+1176.53C1471.04+1182.33+1472.94+1187.18+1476.73+1191.09C1480.53+1195+1485.33+1196.95+1491.13+1196.95C1496.93+1196.95+1501.73+1195+1505.53+1191.09C1509.32+1187.18+1511.22+1182.33+1511.22+1176.53L1511.22+1034.89C1511.22+1028.86+1509.32+1023.95+1505.53+1020.16C1501.73+1016.36+1496.93+1014.46+1491.13+1014.46ZM1423.49+1163.47C1413.89+1163.47+1405.41+1161.01+1398.04+1156.1C1390.68+1151.19+1384.93+1144.49+1380.8+1136.01C1376.67+1127.53+1374.61+1118.04+1374.61+1107.55C1374.61+1096.83+1376.67+1087.24+1380.8+1078.75C1384.93+1070.27+1390.68+1063.57+1398.04+1058.66C1405.41+1053.75+1413.89+1051.3+1423.49+1051.3C1433.31+1051.3+1441.91+1053.75+1449.28+1058.66C1456.64+1063.57+1462.39+1070.27+1466.52+1078.75C1470.65+1087.24+1472.71+1096.83+1472.71+1107.55C1472.71+1118.04+1470.65+1127.53+1466.52+1136.01C1462.39+1144.49+1456.64+1151.19+1449.28+1156.1C1441.91+1161.01+1433.31+1163.47+1423.49+1163.47ZM1648.84+1014.46C1641.47+1014.46+1634.67+1015.63+1628.41+1017.98C1622.16+1020.32+1616.47+1023.39+1611.34+1027.19C1606.2+1030.98+1601.85+1035.06+1598.28+1039.41C1594.71+1043.76+1591.92+1047.84+1589.91+1051.63L1594.93+1052.63L1594.93+1038.24C1594.93+1032.43+1593.03+1027.58+1589.24+1023.67C1585.44+1019.76+1580.64+1017.81+1574.84+1017.81C1569.04+1017.81+1564.24+1019.76+1560.44+1023.67C1556.65+1027.58+1554.75+1032.43+1554.75+1038.24L1554.75+1176.53C1554.75+1182.33+1556.65+1187.18+1560.44+1191.09C1564.24+1195+1569.04+1196.95+1574.84+1196.95C1580.64+1196.95+1585.44+1195+1589.24+1191.09C1593.03+1187.18+1594.93+1182.33+1594.93+1176.53L1594.93+1090.81C1594.93+1083.44+1596.44+1076.8+1599.45+1070.88C1602.46+1064.97+1606.99+1060.22+1613.01+1056.65C1619.04+1053.08+1626.29+1051.3+1634.78+1051.3C1643.48+1051.3+1650.18+1053.08+1654.87+1056.65C1659.56+1060.22+1662.79+1064.97+1664.58+1070.88C1666.36+1076.8+1667.26+1083.44+1667.26+1090.81L1667.26+1176.53C1667.26+1182.33+1669.15+1187.18+1672.95+1191.09C1676.74+1195+1681.54+1196.95+1687.35+1196.95C1693.15+1196.95+1697.95+1195+1701.74+1191.09C1705.54+1187.18+1707.44+1182.33+1707.44+1176.53L1707.44+1090.81C1707.44+1083.44+1708.94+1076.8+1711.96+1070.88C1714.97+1064.97+1719.49+1060.22+1725.52+1056.65C1731.55+1053.08+1738.8+1051.3+1747.28+1051.3C1755.99+1051.3+1762.69+1053.08+1767.37+1056.65C1772.06+1060.22+1775.3+1064.97+1777.08+1070.88C1778.87+1076.8+1779.76+1083.44+1779.76+1090.81L1779.76+1176.53C1779.76+1182.33+1781.66+1187.18+1785.46+1191.09C1789.25+1195+1794.05+1196.95+1799.85+1196.95C1805.66+1196.95+1810.46+1195+1814.25+1191.09C1818.05+1187.18+1819.94+1182.33+1819.94+1176.53L1819.94+1090.81C1819.94+1076.74+1818.38+1063.96+1815.26+1052.47C1812.13+1040.97+1806.38+1031.76+1798.01+1024.84C1789.64+1017.92+1777.42+1014.46+1761.35+1014.46C1751.52+1014.46+1742.65+1016.53+1734.73+1020.66C1726.8+1024.79+1720.05+1029.81+1714.47+1035.73C1708.89+1041.64+1704.76+1047.17+1702.08+1052.3L1699.4+1057.66L1705.09+1060.67C1702.41+1047.05+1696.83+1035.95+1688.35+1027.35C1679.87+1018.76+1666.7+1014.46+1648.84+1014.46ZM1901.31+1038.24C1901.31+1032.43+1899.41+1027.58+1895.62+1023.67C1891.82+1019.76+1887.02+1017.81+1881.22+1017.81C1875.42+1017.81+1870.62+1019.76+1866.82+1023.67C1863.03+1027.58+1861.13+1032.43+1861.13+1038.24L1861.13+1176.53C1861.13+1182.33+1863.03+1187.18+1866.82+1191.09C1870.62+1195+1875.42+1196.95+1881.22+1196.95C1887.02+1196.95+1891.82+1195+1895.62+1191.09C1899.41+1187.18+1901.31+1182.33+1901.31+1176.53L1901.31+1038.24ZM1880.88+996.047C1888.47+996.047+1893.94+994.875+1897.29+992.531C1900.64+990.187+1902.31+985.779+1902.31+979.305L1902.31+972.943C1902.31+966.693+1900.75+962.339+1897.63+959.884C1894.5+957.429+1889.03+956.201+1881.22+956.201C1874.08+956.201+1868.77+957.373+1865.31+959.717C1861.85+962.06+1860.12+966.469+1860.12+972.943L1860.12+979.305C1860.12+985.555+1861.69+989.908+1864.81+992.364C1867.94+994.819+1873.29+996.047+1880.88+996.047ZM2038.26+1014.46C2030.67+1014.46+2023.64+1015.63+2017.16+1017.98C2010.69+1020.32+2004.89+1023.39+1999.75+1027.19C1994.62+1030.98+1990.15+1035.06+1986.36+1039.41C1982.56+1043.76+1979.66+1047.84+1977.65+1051.63L1982.68+1052.63L1982.68+1038.24C1982.68+1032.43+1980.78+1027.58+1976.98+1023.67C1973.19+1019.76+1968.39+1017.81+1962.59+1017.81C1956.78+1017.81+1951.98+1019.76+1948.19+1023.67C1944.39+1027.58+1942.49+1032.43+1942.49+1038.24L1942.49+1176.53C1942.49+1182.33+1944.39+1187.18+1948.19+1191.09C1951.98+1195+1956.78+1196.95+1962.59+1196.95C1968.39+1196.95+1973.19+1195+1976.98+1191.09C1980.78+1187.18+1982.68+1182.33+1982.68+1176.53L1982.68+1090.81C1982.68+1083.44+1984.29+1076.8+1987.53+1070.88C1990.77+1064.97+1995.45+1060.22+2001.59+1056.65C2007.73+1053.08+2015.27+1051.3+2024.2+1051.3C2033.35+1051.3+2040.38+1053.08+2045.29+1056.65C2050.2+1060.22+2053.61+1064.97+2055.5+1070.88C2057.4+1076.8+2058.35+1083.44+2058.35+1090.81L2058.35+1176.53C2058.35+1182.33+2060.25+1187.18+2064.04+1191.09C2067.84+1195+2072.64+1196.95+2078.44+1196.95C2084.24+1196.95+2089.04+1195+2092.84+1191.09C2096.63+1187.18+2098.53+1182.33+2098.53+1176.53L2098.53+1090.81C2098.53+1076.74+2096.91+1063.96+2093.67+1052.47C2090.44+1040.97+2084.52+1031.76+2075.93+1024.84C2067.33+1017.92+2054.78+1014.46+2038.26+1014.46ZM2403.23+973.948C2394.97+969.706+2386.16+966.469+2376.78+964.237C2367.41+962.005+2357.81+960.889+2347.99+960.889C2330.57+960.889+2314.5+963.846+2299.77+969.762C2285.04+975.677+2272.26+983.937+2261.43+994.54C2250.6+1005.14+2242.23+1017.7+2236.32+1032.21C2230.4+1046.72+2227.44+1062.57+2227.44+1079.76C2227.44+1099.62+2230.68+1117.09+2237.15+1132.16C2243.63+1147.23+2252.5+1159.78+2263.77+1169.83C2275.05+1179.87+2287.88+1187.46+2302.28+1192.6C2316.68+1197.73+2331.91+1200.3+2347.99+1200.3C2354.46+1200.3+2360.82+1199.8+2367.07+1198.79C2373.32+1197.79+2379.52+1196.34+2385.65+1194.44C2391.79+1192.54+2397.77+1190.14+2403.57+1187.24C2409.15+1184.56+2412.55+1180.26+2413.78+1174.35C2415.01+1168.43+2413.39+1162.69+2408.93+1157.1C2405.8+1153.09+2401.95+1150.74+2397.37+1150.07C2392.8+1149.4+2388.17+1150.18+2383.48+1152.42C2377.9+1155.32+2372.09+1157.33+2366.07+1158.44C2360.04+1159.56+2354.01+1160.12+2347.99+1160.12C2337.05+1160.12+2326.89+1158.5+2317.52+1155.26C2308.14+1152.03+2299.99+1147.06+2293.07+1140.36C2286.15+1133.67+2280.74+1125.3+2276.83+1115.25C2272.93+1105.2+2270.97+1093.37+2270.97+1079.76C2270.97+1068.15+2272.7+1057.55+2276.16+1047.95C2279.62+1038.35+2284.7+1030.03+2291.4+1023C2298.09+1015.97+2306.19+1010.56+2315.67+1006.76C2325.16+1002.97+2335.93+1001.07+2347.99+1001.07C2354.46+1001.07+2360.65+1001.74+2366.57+1003.08C2372.48+1004.42+2378.12+1006.32+2383.48+1008.77C2388.17+1011+2392.8+1011.9+2397.37+1011.45C2401.95+1011+2405.69+1008.77+2408.59+1004.75C2412.83+999.619+2414.45+993.926+2413.45+987.676C2412.44+981.425+2409.04+976.849+2403.23+973.948ZM2619.54+1107.55C2619.54+1089.24+2615.47+1073.12+2607.32+1059.16C2599.17+1045.21+2588.23+1034.27+2574.51+1026.35C2560.78+1018.43+2545.43+1014.46+2528.46+1014.46C2511.5+1014.46+2496.15+1018.43+2482.42+1026.35C2468.7+1034.27+2457.76+1045.21+2449.61+1059.16C2441.46+1073.12+2437.39+1089.24+2437.39+1107.55C2437.39+1125.85+2441.46+1141.98+2449.61+1155.93C2457.76+1169.88+2468.7+1180.77+2482.42+1188.58C2496.15+1196.39+2511.5+1200.3+2528.46+1200.3C2545.43+1200.3+2560.78+1196.39+2574.51+1188.58C2588.23+1180.77+2599.17+1169.88+2607.32+1155.93C2615.47+1141.98+2619.54+1125.85+2619.54+1107.55ZM2579.36+1107.55C2579.36+1118.71+2577.07+1128.48+2572.5+1136.85C2567.92+1145.22+2561.78+1151.75+2554.08+1156.43C2546.38+1161.12+2537.84+1163.47+2528.46+1163.47C2519.09+1163.47+2510.55+1161.12+2502.85+1156.43C2495.15+1151.75+2489.01+1145.22+2484.43+1136.85C2479.86+1128.48+2477.57+1118.71+2477.57+1107.55C2477.57+1096.16+2479.86+1086.29+2484.43+1077.92C2489.01+1069.54+2495.15+1063.01+2502.85+1058.33C2510.55+1053.64+2519.09+1051.3+2528.46+1051.3C2537.84+1051.3+2546.38+1053.64+2554.08+1058.33C2561.78+1063.01+2567.92+1069.54+2572.5+1077.92C2577.07+1086.29+2579.36+1096.16+2579.36+1107.55ZM2692.54+1038.24C2692.54+1032.43+2690.64+1027.58+2686.84+1023.67C2683.05+1019.76+2678.25+1017.81+2672.45+1017.81C2666.64+1017.81+2661.84+1019.76+2658.05+1023.67C2654.25+1027.58+2652.35+1032.43+2652.35+1038.24L2652.35+1176.53C2652.35+1182.33+2654.25+1187.18+2658.05+1191.09C2661.84+1195+2666.64+1196.95+2672.45+1196.95C2678.25+1196.95+2683.05+1195+2686.84+1191.09C2690.64+1187.18+2692.54+1182.33+2692.54+1176.53L2692.54+1038.24ZM2672.11+996.047C2679.7+996.047+2685.17+994.875+2688.52+992.531C2691.87+990.187+2693.54+985.779+2693.54+979.305L2693.54+972.943C2693.54+966.693+2691.98+962.339+2688.85+959.884C2685.73+957.429+2680.26+956.201+2672.45+956.201C2665.3+956.201+2660+957.373+2656.54+959.717C2653.08+962.06+2651.35+966.469+2651.35+972.943L2651.35+979.305C2651.35+985.555+2652.91+989.908+2656.04+992.364C2659.16+994.819+2664.52+996.047+2672.11+996.047ZM2829.48+1014.46C2821.89+1014.46+2814.86+1015.63+2808.39+1017.98C2801.92+1020.32+2796.12+1023.39+2790.98+1027.19C2785.85+1030.98+2781.38+1035.06+2777.58+1039.41C2773.79+1043.76+2770.88+1047.84+2768.88+1051.63L2773.9+1052.63L2773.9+1038.24C2773.9+1032.43+2772+1027.58+2768.21+1023.67C2764.41+1019.76+2759.61+1017.81+2753.81+1017.81C2748.01+1017.81+2743.21+1019.76+2739.41+1023.67C2735.62+1027.58+2733.72+1032.43+2733.72+1038.24L2733.72+1176.53C2733.72+1182.33+2735.62+1187.18+2739.41+1191.09C2743.21+1195+2748.01+1196.95+2753.81+1196.95C2759.61+1196.95+2764.41+1195+2768.21+1191.09C2772+1187.18+2773.9+1182.33+2773.9+1176.53L2773.9+1090.81C2773.9+1083.44+2775.52+1076.8+2778.76+1070.88C2781.99+1064.97+2786.68+1060.22+2792.82+1056.65C2798.96+1053.08+2806.49+1051.3+2815.42+1051.3C2824.58+1051.3+2831.61+1053.08+2836.51+1056.65C2841.43+1060.22+2844.84+1064.97+2846.73+1070.88C2848.63+1076.8+2849.58+1083.44+2849.58+1090.81L2849.58+1176.53C2849.58+1182.33+2851.47+1187.18+2855.27+1191.09C2859.07+1195+2863.87+1196.95+2869.67+1196.95C2875.47+1196.95+2880.27+1195+2884.06+1191.09C2887.86+1187.18+2889.76+1182.33+2889.76+1176.53L2889.76+1090.81C2889.76+1076.74+2888.14+1063.96+2884.9+1052.47C2881.66+1040.97+2875.75+1031.76+2867.16+1024.84C2858.56+1017.92+2846+1014.46+2829.48+1014.46Z" opacity="1" fill="#ffffff"/>
</g>
</svg>
