<?xml version="1.0" encoding="UTF-8" standalone="no"?> <!-- Created with Vectornator for iOS (http://vectornator.io/) --><!DOCTYPE svg PUBLIC "-//W3C//DTD SVG 1.1//EN" "http://www.w3.org/Graphics/SVG/1.1/DTD/svg11.dtd">
<svg style="fill-rule:evenodd;clip-rule:evenodd;stroke-linecap:round;stroke-linejoin:round;" xmlns:vectornator="http://vectornator.io" xmlns:xlink="http://www.w3.org/1999/xlink" xmlns="http://www.w3.org/2000/svg" xml:space="preserve" version="1.1" viewBox="0 0 2048 2048">
<metadata>
<vectornator:setting key="DimensionsVisible" value="1"/>
<vectornator:setting key="DynamicGuides" value="0"/>
<vectornator:setting key="SnapToPoints" value="0"/>
<vectornator:setting key="GuidesVisible" value="1"/>
<vectornator:setting key="RulersVisible" value="1"/>
<vectornator:setting key="CMYKEnabledKey" value="0"/>
<vectornator:setting key="SnapToEdges" value="0"/>
<vectornator:setting key="DisplayWhiteBackground" value="0"/>
<vectornator:setting key="SnapToGuides" value="1"/>
<vectornator:setting key="GridSpacing" value="36"/>
<vectornator:setting key="SnapToGrid" value="0"/>
<vectornator:setting key="Units" value="Pixels"/>
<vectornator:setting key="New" value="1"/>
</metadata>
<defs>
<linearGradient y1="1033.85" id="LinearGradient" x1="-58.0047" y2="1033.85" x2="2150.74" gradientUnits="userSpaceOnUse" gradientTransform="matrix(0.996042 0 0 0.930426 -19.0651 63.2391)">
<stop stop-color="#1a1a1a" offset="0"/>
<stop stop-color="#2a2a2a" offset="1"/>
</linearGradient>
<linearGradient y1="690.823" id="LinearGradient_2" x1="650" y2="690.823" x2="1450" gradientUnits="userSpaceOnUse" gradientTransform="matrix(0.641933 0.374022 -0.374022 0.641933 723.088 -278.671)">
<stop stop-color="#ff6729" offset="0"/>
<stop stop-color="#c8440c" offset="0.998541"/>
</linearGradient>
<linearGradient y1="1494.21" id="LinearGradient_3" x1="650" y2="1494.21" x2="1450" gradientUnits="userSpaceOnUse" gradientTransform="matrix(0.641933 0.374022 -0.374022 0.641933 723.088 -278.671)">
<stop stop-color="#ff6729" offset="0"/>
<stop stop-color="#c8440c" offset="0.998541"/>
</linearGradient>
<linearGradient y1="1415.13" id="LinearGradient_4" x1="1001.45" y2="1808.09" x2="1001.45" gradientUnits="userSpaceOnUse" gradientTransform="matrix(1 0 0 1 0 0)">
<stop stop-color="#1a1a1a" offset="0"/>
<stop stop-color="#2a2a2a" offset="1"/>
</linearGradient>
</defs>
<g id="Layer 2" vectornator:layerName="Layer 2" visibility="hidden">
<path d="M-76.8403-74.8377L2123.16-74.8377L2123.16+2125.16L-76.8403+2125.16L-76.8403-74.8377Z" opacity="1" fill="url(#LinearGradient)"/>
</g>
<g id="Layer 1" vectornator:layerName="Layer 1">
<g opacity="1">
<path d="M728.818+670.747C779.322+717.724+836.636+760.542+900.039+797.483C1020.61+867.737+1148.12+908.418+1270.88+921.03L1410.78+680.918C1493.67+538.652+1445.88+357.426+1303.61+274.535C1162.21+192.149+980.121+239.434+897.231+381.7L728.818+670.747Z" opacity="1" fill="url(#LinearGradient_2)"/>
<path d="M715.247+694.037L592.121+905.358C509.231+1047.62+557.018+1228.85+699.285+1311.74C841.55+1394.63+1022.78+1346.84+1105.67+1204.58L1233.99+984.342C1134.4+962.753+1033.97+924.338+938.042+868.444C853.17+818.993+778.336+759.704+715.247+694.037Z" opacity="1" fill="url(#LinearGradient_3)"/>
</g>
</g>
<g id="Layer 3" vectornator:layerName="Layer 3">
<path d="M711.24+1415.71C697.03+1415.71+686.745+1422.81+680.388+1437.02L567.635+1726.48L587.268+1725.92L464.418+1437.02C458.061+1422.44+447.778+1415.15+433.566+1415.15C426.461+1415.15+418.981+1418.05+411.128+1423.84C403.275+1429.64+399.348+1437.96+399.348+1448.8C399.348+1451.05+399.535+1453.39+399.909+1455.82C400.283+1458.25+401.03+1460.58+402.152+1462.83L540.709+1788.19C543.7+1794.92+548.001+1800.06+553.611+1803.61C559.221+1807.16+565.017+1809.13+571.002+1809.5C577.359+1809.5+583.623+1807.72+589.793+1804.17C595.964+1800.62+600.732+1795.1+604.097+1787.62L742.654+1463.39C744.899+1458.15+746.02+1453.11+746.02+1448.24C746.02+1438.89+742.561+1431.13+735.643+1424.96C728.724+1418.79+720.59+1415.71+711.24+1415.71ZM875.041+1451.05C875.041+1441.33+871.581+1433.19+864.663+1426.65C857.745+1420.1+849.797+1416.83+840.822+1416.83C830.351+1416.83+821.749+1420.1+815.018+1426.65C808.287+1433.19+804.921+1441.33+804.921+1451.05L804.921+1775.28C804.921+1785.01+808.1+1793.14+814.457+1799.68C820.815+1806.23+829.228+1809.5+839.701+1809.5C849.049+1809.5+857.277+1806.23+864.383+1799.68C871.488+1793.14+875.041+1785.01+875.041+1775.28L875.041+1451.05ZM1092.13+1809.5C1102.98+1809.5+1111.86+1806.23+1118.78+1799.68C1125.7+1793.14+1129.15+1785.01+1129.15+1775.28L1129.15+1449.93L1056.23+1449.93L1056.23+1775.28C1056.23+1785.01+1059.6+1793.14+1066.33+1799.68C1073.06+1806.23+1081.66+1809.5+1092.13+1809.5ZM1217.23+1481.34C1226.95+1481.34+1235.08+1478.44+1241.63+1472.65C1248.17+1466.85+1251.44+1459.09+1251.44+1449.37C1251.44+1439.64+1248.17+1431.79+1241.63+1425.81C1235.08+1419.82+1226.95+1416.83+1217.23+1416.83L968.16+1416.83C958.437+1416.83+950.303+1419.73+943.758+1425.53C937.214+1431.32+933.941+1439.08+933.941+1448.8C933.941+1458.53+937.214+1466.38+943.758+1472.36C950.303+1478.35+958.437+1481.34+968.16+1481.34L1217.23+1481.34ZM1585.21+1435.9C1571.38+1428.8+1556.61+1423.38+1540.9+1419.64C1525.19+1415.9+1509.11+1414.03+1492.66+1414.03C1463.49+1414.03+1436.56+1418.98+1411.88+1428.89C1387.2+1438.8+1365.79+1452.64+1347.65+1470.4C1329.51+1488.17+1315.49+1509.2+1305.58+1533.51C1295.67+1557.82+1290.71+1584.37+1290.71+1613.17C1290.71+1646.45+1296.13+1675.71+1306.98+1700.96C1317.82+1726.2+1332.69+1747.23+1351.57+1764.06C1370.46+1780.89+1391.96+1793.61+1416.09+1802.21C1440.21+1810.81+1465.73+1815.11+1492.66+1815.11C1503.5+1815.11+1514.16+1814.27+1524.63+1812.59C1535.1+1810.9+1545.48+1808.47+1555.76+1805.29C1566.05+1802.12+1576.05+1798.09+1585.78+1793.23C1595.12+1788.75+1600.83+1781.55+1602.89+1771.64C1604.94+1761.73+1602.23+1752.1+1594.75+1742.75C1589.52+1736.02+1583.06+1732.09+1575.4+1730.97C1567.73+1729.84+1559.97+1731.15+1552.12+1734.89C1542.77+1739.76+1533.05+1743.12+1522.95+1744.99C1512.85+1746.86+1502.75+1747.8+1492.66+1747.8C1474.33+1747.8+1457.32+1745.08+1441.61+1739.66C1425.9+1734.24+1412.25+1725.92+1400.66+1714.7C1389.07+1703.48+1380+1689.46+1373.45+1672.63C1366.91+1655.8+1363.64+1635.98+1363.64+1613.17C1363.64+1593.72+1366.53+1575.96+1372.33+1559.87C1378.13+1543.79+1386.64+1529.86+1397.85+1518.08C1409.07+1506.3+1422.63+1497.23+1438.52+1490.88C1454.42+1484.52+1472.46+1481.34+1492.66+1481.34C1503.5+1481.34+1513.88+1482.46+1523.79+1484.71C1533.7+1486.95+1543.14+1490.13+1552.12+1494.24C1559.97+1497.98+1567.73+1499.48+1575.4+1498.73C1583.06+1497.98+1589.33+1494.24+1594.19+1487.51C1601.3+1478.91+1604.01+1469.37+1602.32+1458.9C1600.64+1448.43+1594.94+1440.76+1585.21+1435.9Z" opacity="1" fill="url(#LinearGradient_4)"/>
</g>
</svg>
