<svg id="Calque_1" data-name="Calque 1" xmlns="http://www.w3.org/2000/svg" viewBox="0 0 16 16">
    <defs>
        <style>.cls-1{fill:#fff;}</style>
    </defs>
    <rect class="cls-1" x="15" y="15" width="1" height="1" />
    <rect class="cls-1" x="15" y="14" width="1" height="1" />
    <rect class="cls-1" x="15" y="13" width="1" height="1" />
    <rect class="cls-1" x="15" y="12" width="1" height="1" />
    <rect class="cls-1" x="15" y="11" width="1" height="1" />
    <rect class="cls-1" x="15" y="10" width="1" height="1" />
    <rect class="cls-1" x="15" y="5" width="1" height="1" />
    <rect class="cls-1" x="15" y="4" width="1" height="1" />
    <rect class="cls-1" x="15" y="3" width="1" height="1" />
    <rect class="cls-1" x="15" y="2" width="1" height="1" />
    <rect class="cls-1" x="15" y="1" width="1" height="1" />
    <rect class="cls-1" x="15" y="0" width="1" height="1" />
    <rect class="cls-1" x="14" y="15" width="1" height="1" />
    <rect x="14" y="14" width="1" height="1" />
    <rect x="14" y="13" width="1" height="1" />
    <rect x="14" y="12" width="1" height="1" />
    <rect x="14" y="11" width="1" height="1" />
    <rect x="14" y="10" width="1" height="1" />
    <rect x="14" y="5" width="1" height="1" />
    <rect x="14" y="4" width="1" height="1" />
    <rect x="14" y="3" width="1" height="1" />
    <rect x="14" y="2" width="1" height="1" />
    <rect x="14" y="1" width="1" height="1" />
    <rect class="cls-1" x="14" y="0" width="1" height="1" />
    <rect class="cls-1" x="13" y="15" width="1" height="1" />
    <rect x="13" y="14" width="1" height="1" />
    <rect x="13" y="1" width="1" height="1" />
    <rect class="cls-1" x="13" y="0" width="1" height="1" />
    <rect class="cls-1" x="12" y="15" width="1" height="1" />
    <rect x="12" y="14" width="1" height="1" />
    <rect x="12" y="1" width="1" height="1" />
    <rect class="cls-1" x="12" y="0" width="1" height="1" />
    <rect class="cls-1" x="11" y="15" width="1" height="1" />
    <rect x="11" y="14" width="1" height="1" />
    <rect x="11" y="1" width="1" height="1" />
    <rect class="cls-1" x="11" y="0" width="1" height="1" />
    <rect class="cls-1" x="10" y="15" width="1" height="1" />
    <rect x="10" y="14" width="1" height="1" />
    <rect x="10" y="1" width="1" height="1" />
    <rect class="cls-1" x="10" y="0" width="1" height="1" />
    <rect class="cls-1" x="5" y="15" width="1" height="1" />
    <rect x="5" y="14" width="1" height="1" />
    <rect x="5" y="1" width="1" height="1" />
    <rect class="cls-1" x="5" y="0" width="1" height="1" />
    <rect class="cls-1" x="4" y="15" width="1" height="1" />
    <rect x="4" y="14" width="1" height="1" />
    <rect x="4" y="1" width="1" height="1" />
    <rect class="cls-1" x="4" y="0" width="1" height="1" />
    <rect class="cls-1" x="3" y="15" width="1" height="1" />
    <rect x="3" y="14" width="1" height="1" />
    <rect x="3" y="1" width="1" height="1" />
    <rect class="cls-1" x="3" y="0" width="1" height="1" />
    <rect class="cls-1" x="2" y="15" width="1" height="1" />
    <rect x="2" y="14" width="1" height="1" />
    <rect x="2" y="1" width="1" height="1" />
    <rect class="cls-1" x="2" y="0" width="1" height="1" />
    <rect class="cls-1" x="1" y="15" width="1" height="1" />
    <rect x="1" y="14" width="1" height="1" />
    <rect x="1" y="13" width="1" height="1" />
    <rect x="1" y="12" width="1" height="1" />
    <rect x="1" y="11" width="1" height="1" />
    <rect x="1" y="10" width="1" height="1" />
    <rect x="1" y="5" width="1" height="1" />
    <rect x="1" y="4" width="1" height="1" />
    <rect x="1" y="3" width="1" height="1" />
    <rect x="1" y="2" width="1" height="1" />
    <rect x="1" y="1" width="1" height="1" />
    <rect class="cls-1" x="1" y="0" width="1" height="1" />
    <rect class="cls-1" x="0" y="15" width="1" height="1" />
    <rect class="cls-1" x="0" y="14" width="1" height="1" />
    <rect class="cls-1" x="0" y="13" width="1" height="1" />
    <rect class="cls-1" x="0" y="12" width="1" height="1" />
    <rect class="cls-1" x="0" y="11" width="1" height="1" />
    <rect class="cls-1" x="0" y="10" width="1" height="1" />
    <rect class="cls-1" x="0" y="5" width="1" height="1" />
    <rect class="cls-1" x="0" y="4" width="1" height="1" />
    <rect class="cls-1" x="0" y="3" width="1" height="1" />
    <rect class="cls-1" x="0" y="2" width="1" height="1" />
    <rect class="cls-1" x="0" y="1" width="1" height="1" />
    <rect class="cls-1" x="0" y="0" width="1" height="1" />
</svg>