<svg xmlns="http://www.w3.org/2000/svg" xmlns:xlink="http://www.w3.org/1999/xlink" width="500" zoomAndPan="magnify" viewBox="0 0 375 374.999991" height="500" preserveAspectRatio="xMidYMid meet" version="1.0"><path fill="rgb(50.979614%, 0%, 50.19989%)" d="M 62.695312 37.5 L 109.21875 37.5 L 109.21875 84.023438 L 62.695312 84.023438 L 62.695312 37.5 " fill-opacity="1" fill-rule="nonzero"/><path fill="rgb(81.17981%, 43.139648%, 89.408875%)" d="M 62.695312 87.941406 L 109.21875 87.941406 L 109.21875 134.46875 L 62.695312 134.46875 L 62.695312 87.941406 " fill-opacity="1" fill-rule="nonzero"/><path fill="rgb(0%, 0%, 91.758728%)" d="M 62.695312 138.96875 L 109.21875 138.96875 L 109.21875 185.492188 L 62.695312 185.492188 L 62.695312 138.96875 " fill-opacity="1" fill-rule="nonzero"/><path fill="rgb(0%, 51.368713%, 78.039551%)" d="M 62.695312 189.703125 L 109.21875 189.703125 L 109.21875 236.226562 L 62.695312 236.226562 L 62.695312 189.703125 " fill-opacity="1" fill-rule="nonzero"/><path fill="rgb(100%, 65.489197%, 81.959534%)" d="M 265.710938 37.5 L 312.238281 37.5 L 312.238281 84.023438 L 265.710938 84.023438 L 265.710938 37.5 " fill-opacity="1" fill-rule="nonzero"/><path fill="rgb(89.7995%, 0%, 0%)" d="M 265.710938 87.941406 L 312.238281 87.941406 L 312.238281 134.46875 L 265.710938 134.46875 L 265.710938 87.941406 " fill-opacity="1" fill-rule="nonzero"/><path fill="rgb(89.7995%, 58.428955%, 0%)" d="M 265.710938 138.96875 L 312.238281 138.96875 L 312.238281 185.492188 L 265.710938 185.492188 L 265.710938 138.96875 " fill-opacity="1" fill-rule="nonzero"/><path fill="rgb(89.7995%, 85.099792%, 0%)" d="M 265.710938 189.703125 L 312.238281 189.703125 L 312.238281 236.226562 L 265.710938 236.226562 L 265.710938 189.703125 " fill-opacity="1" fill-rule="nonzero"/><path fill="rgb(58.039856%, 87.838745%, 26.669312%)" d="M 214.5 240.304688 L 261.023438 240.304688 L 261.023438 286.828125 L 214.5 286.828125 L 214.5 240.304688 " fill-opacity="1" fill-rule="nonzero"/><path fill="rgb(0%, 82.749939%, 86.669922%)" d="M 113.691406 240.304688 L 160.21875 240.304688 L 160.21875 286.828125 L 113.691406 286.828125 L 113.691406 240.304688 " fill-opacity="1" fill-rule="nonzero"/><path fill="rgb(0.779724%, 74.508667%, 0.389099%)" d="M 163.992188 290.90625 L 210.515625 290.90625 L 210.515625 337.433594 L 163.992188 337.433594 L 163.992188 290.90625 " fill-opacity="1" fill-rule="nonzero"/></svg>